<?xml version="1.0" standalone="no"?><svg xmlns="http://www.w3.org/2000/svg" viewBox="0 0 1440 320"><path fill="#f116c5" fill-opacity="1" d="M0,32L6.2,58.7C12.3,85,25,139,37,149.3C49.2,160,62,128,74,101.3C86.2,75,98,53,111,48C123.1,43,135,53,148,101.3C160,149,172,235,185,234.7C196.9,235,209,149,222,133.3C233.8,117,246,171,258,165.3C270.8,160,283,96,295,96C307.7,96,320,160,332,165.3C344.6,171,357,117,369,112C381.5,107,394,149,406,165.3C418.5,181,431,171,443,149.3C455.4,128,468,96,480,74.7C492.3,53,505,43,517,74.7C529.2,107,542,181,554,186.7C566.2,192,578,128,591,112C603.1,96,615,128,628,165.3C640,203,652,245,665,261.3C676.9,277,689,267,702,272C713.8,277,726,299,738,304C750.8,309,763,299,775,272C787.7,245,800,203,812,165.3C824.6,128,837,96,849,112C861.5,128,874,192,886,186.7C898.5,181,911,107,923,96C935.4,85,948,139,960,165.3C972.3,192,985,192,997,192C1009.2,192,1022,192,1034,202.7C1046.2,213,1058,235,1071,250.7C1083.1,267,1095,277,1108,240C1120,203,1132,117,1145,117.3C1156.9,117,1169,203,1182,213.3C1193.8,224,1206,160,1218,165.3C1230.8,171,1243,245,1255,245.3C1267.7,245,1280,171,1292,144C1304.6,117,1317,139,1329,160C1341.5,181,1354,203,1366,186.7C1378.5,171,1391,117,1403,122.7C1415.4,128,1428,192,1434,224L1440,256L1440,0L1433.8,0C1427.7,0,1415,0,1403,0C1390.8,0,1378,0,1366,0C1353.8,0,1342,0,1329,0C1316.9,0,1305,0,1292,0C1280,0,1268,0,1255,0C1243.1,0,1231,0,1218,0C1206.2,0,1194,0,1182,0C1169.2,0,1157,0,1145,0C1132.3,0,1120,0,1108,0C1095.4,0,1083,0,1071,0C1058.5,0,1046,0,1034,0C1021.5,0,1009,0,997,0C984.6,0,972,0,960,0C947.7,0,935,0,923,0C910.8,0,898,0,886,0C873.8,0,862,0,849,0C836.9,0,825,0,812,0C800,0,788,0,775,0C763.1,0,751,0,738,0C726.2,0,714,0,702,0C689.2,0,677,0,665,0C652.3,0,640,0,628,0C615.4,0,603,0,591,0C578.5,0,566,0,554,0C541.5,0,529,0,517,0C504.6,0,492,0,480,0C467.7,0,455,0,443,0C430.8,0,418,0,406,0C393.8,0,382,0,369,0C356.9,0,345,0,332,0C320,0,308,0,295,0C283.1,0,271,0,258,0C246.2,0,234,0,222,0C209.2,0,197,0,185,0C172.3,0,160,0,148,0C135.4,0,123,0,111,0C98.5,0,86,0,74,0C61.5,0,49,0,37,0C24.6,0,12,0,6,0L0,0Z"></path></svg>